# xmcd
#
# Track frame offsets: 
#        150
#        11624
#        21571
#        35808
#        47778
#        58842
#        70594
#        81626
#        93278
#        106780
#        116720
#        127139
#        138039
#        149788
#        160825
#        183567
#        193974
#        204514
#
# Disc length: 2916 seconds
#
# Revision: 2
# Processed by: cddbd v1.5.2PL0 Copyright (c) Steve Scherf et al.
# Submitted via: ExactAudioCopy v0.95a5
#
DISCID=150b6212
DTITLE=Pat Boone - The Very Best of Pat Boone
DYEAR=1900
DGENRE=Musical
TTITLE0=April Love
TTITLE1=Love Letters In The Sand
TTITLE2=Friendly Persuasion
TTITLE3=Poetry In Motion
TTITLE4=Tutti Frutti
TTITLE5=Speedy Gonzales
TTITLE6=Ain't That A Shame
TTITLE7=Moody River
TTITLE8=JamBalaya ( On The Bayou )
TTITLE9=Bernadine
TTITLE10=Remember You're Mine
TTITLE11=Mr.Blue
TTITLE12=I Almost Lost My Love
TTITLE13=I Love You More And More Everyday
TTITLE14=The Three Bells
TTITLE15=Don't Forbid Me
TTITLE16=Hey Good Looking
TTITLE17=I Believe In Music
EXTD=
EXTT0=
EXTT1=
EXTT2=
EXTT3=
EXTT4=
EXTT5=
EXTT6=
EXTT7=
EXTT8=
EXTT9=
EXTT10=
EXTT11=
EXTT12=
EXTT13=
EXTT14=
EXTT15=
EXTT16=
EXTT17=
PLAYORDER=
